<svg width="285" height="285" viewBox="0 0 285 285" fill="none" xmlns="http://www.w3.org/2000/svg">
<g clip-path="url(#clip0_187_72)">
<rect width="285" height="285" rx="142.5" fill="#5C0287"/>
<path d="M161.467 124.78C161.045 99.2966 154.233 77.246 144.313 65.5586C143.573 64.6873 142.252 64.6874 141.513 65.5586C131.678 77.1445 124.899 98.9142 124.37 124.117C113.969 132.101 107 146.745 107 163.489C107 169.074 114.204 170.614 118.588 167.153C125.334 161.826 133.587 158.693 142.5 158.693C151.413 158.693 159.666 161.826 166.413 167.153C170.796 170.614 178 169.074 178 163.489C178 147.199 171.403 132.896 161.467 124.78Z" fill="white"/>
<path d="M127.815 184.089C126.683 181.26 127.087 177.988 129.662 176.36C132.295 174.694 136.459 173 142.5 173C148.54 173 152.704 174.694 155.338 176.36C157.913 177.988 158.317 181.26 157.185 184.089L151.929 197.229C151.018 199.506 148.811 201 146.358 201H138.642C136.189 201 133.982 199.506 133.071 197.229L127.815 184.089Z" fill="#A665C6"/>
<path fill-rule="evenodd" clip-rule="evenodd" d="M285 260.572C246.271 241.917 196.641 230.712 142.534 230.712C88.4261 230.712 38.7965 241.917 0.0674744 260.572C34.8074 237.456 85.7552 222.866 142.534 222.866C199.312 222.866 250.26 237.456 285 260.572Z" fill="white"/>
</g>
<defs>
<clipPath id="clip0_187_72">
<rect width="285" height="285" rx="142.5" fill="white"/>
</clipPath>
</defs>
</svg>
